<svg width="34" height="32" viewBox="0 0 34 32" fill="none" xmlns="http://www.w3.org/2000/svg">
<path fill-rule="evenodd" clip-rule="evenodd" d="M9.48177 12.7156C9.54677 13.0315 9.77826 13.218 10.0404 13.4155C10.5669 13.8197 10.3806 13.8839 10.5294 14.1499C10.8301 14.114 11.0606 13.8195 11.2586 13.7651L11.437 13.6559C12.0432 13.4337 12.6656 14.1476 12.9443 14.5663C14.0699 16.2663 14.5376 18.7011 13.9304 20.9098C14.6279 21.6871 15.7964 21.952 16.8121 21.6415C17.3548 19.9339 18.4161 18.5079 19.7152 17.5025C20.366 16.9984 22.0688 15.7965 22.8284 16.4152C23.1325 16.6627 23.1127 17.1489 23.4322 17.3434C23.4854 17.31 23.4569 17.3305 23.5148 17.2811C23.5456 17.2525 23.5715 17.2245 23.6043 17.1947C23.6817 17.1225 23.7156 17.0999 23.7966 17.0596C24.2719 16.8274 24.1806 17.115 25.1118 16.6285C25.2486 16.2282 25.3462 15.1168 25.3312 14.6393C25.3269 14.5038 25.3233 14.4771 25.284 14.3847C24.1227 14.0113 21.9756 13.7282 20.7513 13.7734C18.0312 13.8708 17.7794 15.2472 17.1559 15.0723C16.4992 14.8892 17.1088 13.3462 13.8514 11.8288C13.4961 11.6634 13.1206 11.5619 12.7726 11.4103C12.2733 11.1904 11.0705 10.8101 10.4708 10.7255C10.277 11.0773 9.49651 12.2747 9.48177 12.7156Z" fill="white"/>
<path fill-rule="evenodd" clip-rule="evenodd" d="M14.6367 24.3234C16.0432 24.6689 17.6347 24.641 18.8773 24.1378C19.1437 24.0294 19.4665 23.9788 19.3635 23.5457C19.2188 22.9414 19.158 22.6272 19.1395 21.911C18.8067 21.7249 18.1269 22.3247 17.4238 22.0269C16.9785 21.8372 17.4183 21.4241 16.7189 21.6903C16.571 21.7478 16.4856 21.7684 16.3099 21.7928C15.963 21.8427 15.7422 21.8488 15.3753 21.7591C14.3594 21.511 14.1139 20.8395 13.9613 20.8172C13.8757 20.8046 13.3354 21.4217 12.451 20.4546C12.3128 20.3029 12.2395 20.157 12.0368 20.117C11.8903 20.2658 11.6758 20.5952 11.5206 20.7855C10.8721 21.5872 10.5121 21.632 10.9942 22.1631C11.9693 23.249 13.0964 23.941 14.6367 24.3234Z" fill="white"/>
<path fill-rule="evenodd" clip-rule="evenodd" d="M11.0995 10.8424C11.7269 10.0821 14.3096 11.7779 14.8759 12.1659C15.5686 12.6426 16.3101 13.5224 16.6487 14.3061C17.2773 15.7633 16.8957 15.0737 18.7066 14.1552C20.1708 13.4139 22.245 13.3897 23.7589 13.6933C24.2895 13.7986 24.3859 13.8034 24.5686 14.2457L24.8484 14.3162L25.1559 13.3277C22.8728 12.53 20.0257 12.5512 17.9777 14.2094C17.7754 14.3716 17.4176 14.7895 17.1724 14.781C17.0311 14.7276 16.7835 13.6916 16.4015 13.0498C15.2796 11.1715 13.2524 10.1949 11.069 9.77047C10.9855 9.97328 10.9412 10.1931 10.8791 10.4066C10.7641 10.8129 10.7511 10.767 11.0995 10.8424Z" fill="white"/>
<path fill-rule="evenodd" clip-rule="evenodd" d="M19.3834 22.0865C19.3193 22.3615 19.4819 23.5682 19.568 23.7828C19.9967 23.8666 21.6636 22.605 22.0297 22.312C22.5394 21.9048 23.7413 20.5756 24.0331 19.9079C23.942 19.8955 22.7836 20.1176 23.2335 19.1174C22.9174 18.8579 23.0413 18.8061 23.0024 18.5325C22.8666 18.6739 22.7716 18.9413 22.6497 19.1382C22.5004 19.3753 22.4102 19.501 22.2636 19.7069C21.9899 20.095 21.7209 20.38 21.3903 20.7087C20.8478 21.2507 19.9951 21.8389 19.3834 22.0865Z" fill="white"/>
<path fill-rule="evenodd" clip-rule="evenodd" d="M9.91365 15.592C9.75866 16.4194 9.29318 16.1366 8.81682 15.9401C8.66753 16.737 9.03177 18.3143 9.23817 18.9568C9.40384 19.4733 10.2218 21.2163 10.5556 21.3221C10.7503 21.1298 11.5505 20.1674 11.639 19.9169C10.8095 18.9039 10.4224 17.3512 10.4085 15.9259C10.407 15.7355 10.4467 15.3487 10.4207 15.2044C10.3329 15.3004 10.3417 15.3732 10.2095 15.47C10.0951 15.5595 10.0259 15.5424 9.91365 15.592Z" fill="white"/>
<path fill-rule="evenodd" clip-rule="evenodd" d="M11.9135 9.88126C12.4696 10.065 12.1635 9.72865 12.9709 10.0584C14.7568 10.7856 16.4134 12.1671 17.0066 14.1926C17.1678 14.7467 17.2097 14.7537 17.5998 14.3891C17.9365 14.0747 18.3401 13.777 18.7047 13.5648C19.2925 13.2198 19.7138 13.0714 20.3772 12.8724C20.8761 12.7258 21.7015 12.5976 22.2476 12.611C24.6285 12.6649 23.5755 12.8949 24.3474 12.9951L24.4993 12.4612C23.3852 12.0545 21.6462 12.1918 20.4801 12.5452C19.7282 12.7749 18.2911 13.4804 17.672 14.0612C17.5273 14.1979 17.4655 14.3236 17.2835 14.3574C17.2151 14.2661 17.1045 13.8199 16.976 13.5228C16.859 13.2481 16.6843 12.9359 16.5696 12.7271C15.6705 11.1191 13.9034 9.67988 12.0727 9.33335L11.9135 9.88126Z" fill="white"/>
<path fill-rule="evenodd" clip-rule="evenodd" d="M23.7333 18.0898C23.569 18.2503 23.3506 18.245 23.2148 18.5349C22.9932 19.0015 23.3844 18.9472 23.4244 19.1398C23.4578 19.3173 23.0266 19.6399 23.4625 19.7944C23.7191 19.8846 24.0351 19.8185 24.2395 19.6931C24.6277 19.4537 24.4605 19.1526 24.595 18.9378C24.6707 18.8174 24.7489 18.7915 24.8408 18.6097C24.951 18.3922 24.9327 18.3307 24.9579 18.1191C24.9957 17.7932 25.2885 17.7532 25.3087 17.2822C25.3309 16.8151 24.9586 17.1623 24.7306 17.2283C24.4513 17.3085 23.9252 17.3026 23.7321 17.6655C23.5994 17.9176 23.7145 17.9109 23.7333 18.0898Z" fill="white"/>
<path fill-rule="evenodd" clip-rule="evenodd" d="M10.0282 15.2717C10.2786 14.635 9.98336 14.7111 9.91459 14.3524C10.0185 14.2105 10.0397 14.2945 10.1092 14.1358C10.3197 13.6584 9.63442 13.2981 9.45916 13.0957C9.31272 12.9238 9.34109 12.7716 9.13587 12.7377C9.05657 12.8706 8.96643 12.927 8.90517 13.1548C8.8345 13.4205 8.92186 13.5091 8.89472 13.6733C8.86632 13.8472 8.73375 13.9418 8.68911 14.2206C8.65459 14.4265 8.72016 14.5415 8.70282 14.7098C8.65506 15.1403 8.35047 15.2326 8.73027 15.6665C8.97116 15.9404 9.2011 16.0408 9.53048 15.8574C9.60027 15.6653 9.54876 15.48 9.65123 15.3863C9.78289 15.2949 9.70671 15.3682 9.85824 15.3437C10.0292 15.3172 9.92872 15.3225 10.0282 15.2717Z" fill="white"/>
<path fill-rule="evenodd" clip-rule="evenodd" d="M30.473 15.0081C30.4737 14.7889 30.7414 12.9542 30.9202 12.5964C30.9873 12.4623 31.1243 12.3303 31.1627 12.241C31.4321 11.5925 29.1589 11.8095 27.9084 13.3763C27.0963 14.3932 26.9649 15.7792 26.4305 17.1645C24.8389 21.2964 22.4649 24.0291 18.6754 25.1544L17.1819 25.5122C17.1391 25.7847 17.6636 26.7852 17.7714 26.9709C17.9426 27.2627 18.4983 28.0633 18.7648 28.2212C18.9289 28.3154 20.1098 27.8451 20.3411 27.7398C21.2566 27.3246 22.4938 26.736 23.3903 26.4785C24.4017 26.1875 25.4732 25.5696 26.1414 24.616C26.2965 24.3948 26.5559 24.0134 26.5437 23.6654C26.5228 23.2013 26.1474 23.4033 25.9486 23.185C25.989 22.8885 26.2394 22.7009 26.4299 22.5738C27.1737 22.0692 27.4294 21.9231 28.0461 20.9685C28.3583 20.4862 28.6142 19.9817 28.8481 19.4014C29.4516 17.9076 28.7497 18.0507 28.7006 17.8627C28.7316 17.4902 29.0095 17.4081 29.2168 17.2718C29.781 16.9105 29.8612 16.6121 30.1032 16.1879C30.1821 16.0399 30.472 15.239 30.473 15.0081ZM17.8342 25.8493C17.8448 25.8452 17.8572 25.8348 17.861 25.8324C17.8682 25.8292 17.8816 25.8208 17.8889 25.8175L19.415 25.374C19.8946 25.2128 20.4373 25.0019 20.8855 24.7543C21.7401 24.2838 22.7038 23.5941 23.5049 22.8157C24.9491 21.4141 25.879 20.2018 26.6379 18.2742C26.8052 17.8533 27.2226 16.5362 27.4254 16.3016C27.7299 16.3501 27.5753 16.965 27.5161 17.2184C27.1767 18.6401 26.5611 19.9752 25.7055 21.1153C24.5415 22.6649 22.7332 24.1373 21.1098 24.9437C20.3869 25.306 18.5383 25.9964 17.8342 25.8493ZM23.661 25.3647C22.6938 26.0234 21.0131 26.5945 19.9414 26.8121C19.708 26.8599 18.4574 27.0667 18.3192 26.9589C18.3905 26.8375 18.3122 26.9236 18.4868 26.8948L19.1131 26.8067C20.5525 26.5327 21.5558 26.2044 22.8737 25.4398C23.314 25.1818 23.9981 24.6341 24.2527 24.7137C24.1949 25.0595 23.8668 25.223 23.661 25.3647ZM25.4463 24.8713C25.1926 25.1352 24.6261 25.6618 24.287 25.6299C24.4152 25.2848 25.2545 24.7318 25.0819 24.2336C25.0281 24.078 24.5919 23.9049 25.0624 23.6561C25.2516 23.5554 25.5327 23.4892 25.7627 23.5997C26.3126 23.8678 25.7085 24.5995 25.4463 24.8713ZM24.9551 23.3767C23.6332 24.5506 22.2104 25.4769 20.6187 26.0114C20.0682 26.1953 18.6551 26.5629 18.0542 26.4546C18.3766 26.2948 18.9293 26.2605 19.3311 26.1622C22.3333 25.4319 24.0092 23.8045 26.0703 21.47C26.2315 21.2871 26.359 21.0523 26.5756 21.1008C26.5844 21.7695 25.3373 23.0373 24.9551 23.3767ZM28.1384 19.9563C27.9355 20.3483 27.4201 21.1152 27.0428 21.0856C27.141 20.6544 27.8876 19.7335 27.6217 19.3027C27.4965 19.0959 27.0178 19.1887 27.4533 18.6599C27.8518 18.1722 29.1194 18.0633 28.1384 19.9563ZM29.7199 15.4367C29.5462 15.8794 28.997 16.7955 28.5413 16.641C28.5678 16.398 28.8549 15.9916 28.963 15.6398C29.3894 14.2698 28.7027 14.2525 28.3197 14.6486C28.1625 14.8124 27.9205 15.2365 27.6881 15.1775C27.5822 14.2051 29.5878 12.1651 29.9117 13.4576C30.0367 13.9524 29.9756 14.7864 29.7199 15.4367Z" fill="white"/>
<path fill-rule="evenodd" clip-rule="evenodd" d="M10.4514 22.7163C7.39684 19.4984 7.218 15.3436 8.6255 10.4539C8.77567 9.93514 8.86778 9.65484 8.92908 9.15595C9.0969 7.81772 8.26795 6.22312 7.16875 5.73548C6.50892 5.44181 6.7667 6.06811 6.68845 6.43053C6.57747 6.94394 6.49242 7.81202 6.26429 8.36177C6.11838 8.71417 6.11091 8.56665 5.97386 9.04013C5.97386 9.04013 5.54494 10.2619 5.6863 10.7757C5.74359 10.9841 5.72893 11.0944 5.82522 11.2655C5.92061 11.4398 5.99407 11.5869 5.85037 11.8829C5.66447 12.0646 5.30375 11.5502 4.94688 12.7831C4.61218 13.9394 4.58843 15.69 5.06175 16.6659C5.16228 16.8766 5.52698 17.4423 5.31908 17.7543C5.14584 17.8923 4.32844 17.1679 4.37467 18.8771C4.40514 19.9312 5.02071 21.0712 5.7332 21.768C6.56457 22.5796 7.00452 23.3999 7.7069 24.2617C7.88983 24.4911 8.60328 25.4175 8.78985 25.4285C9.07066 25.4443 10.0707 24.958 10.3308 24.818C10.5707 24.6881 11.5361 24.056 11.6508 23.8114C11.6399 23.8004 10.653 22.9302 10.4514 22.7163ZM6.22798 9.33232C6.31525 8.68413 7.14769 6.7617 7.86696 7.43507C8.39222 7.92822 8.55855 9.58009 8.11124 9.99866C7.77822 9.85441 8.03793 9.07637 7.6149 8.87471C7.15654 8.65427 6.87853 9.39263 6.75893 9.86539C6.68098 10.1726 6.68603 10.3664 6.67851 10.6308C6.66135 11.221 6.03153 10.7857 6.22798 9.33232ZM5.95458 13.6031C5.43293 14.1322 5.69892 14.8493 5.49711 15.4273C4.91096 15.1987 5.01313 12.1046 6.07888 12.594C6.40378 12.7446 6.55209 13.1045 6.40099 13.556C6.10267 13.6765 6.296 13.5937 5.95458 13.6031ZM5.30014 18.2368C5.65138 18.3019 5.96617 18.5253 5.84631 18.9394C5.66235 19.0062 5.25026 18.978 5.3159 19.7209C5.33644 19.9587 5.47499 20.4769 5.45206 20.6319C4.96257 20.5461 4.25216 18.0381 5.30014 18.2368ZM5.93436 19.8704C6.18649 19.8607 6.29042 20.233 6.39544 20.4498C7.10205 21.9037 8.01162 23.041 9.24513 24.0072C9.40454 24.1337 9.72542 24.3469 9.84393 24.4901C8.70278 24.2449 5.57214 20.7805 5.93436 19.8704ZM8.38313 22.6405C7.35333 21.4852 6.49047 19.894 6.066 18.3809C5.91375 17.8343 5.54461 16.3684 5.87145 15.6672C6.10958 15.6842 6.10107 16.0169 6.12819 16.2212C6.20463 16.786 6.38578 17.5524 6.50456 18.1226C6.90693 20.0371 8.00632 22.2142 9.45227 23.4054C9.70165 23.611 10.2296 24.0027 10.3814 24.2261C9.80572 24.0587 8.78919 23.0959 8.38313 22.6405ZM8.54138 21.4925C7.47568 19.9466 6.51365 17.1269 6.59204 15.0683C6.63474 14.0324 6.79983 12.8174 7.19044 11.8038C7.29447 11.5365 7.45599 11.0272 7.74878 11.1046C7.79689 11.9135 6.49644 14.884 7.62565 18.5671C8.87207 22.6308 10.4562 23.0574 10.8985 23.8047C10.1882 23.604 8.99347 22.1518 8.54138 21.4925Z" fill="white"/>
<path fill-rule="evenodd" clip-rule="evenodd" d="M23.0963 17.0644C22.5443 17.1822 22.337 18.2004 22.9205 18.3442C23.1326 18.3965 23.6073 18.105 23.2579 17.4052C23.2299 17.3495 23.214 17.3171 23.1897 17.2539C23.1269 17.1006 23.1922 17.1856 23.0963 17.0644Z" fill="white"/>
<path fill-rule="evenodd" clip-rule="evenodd" d="M10.8232 14.9577C10.8716 14.8889 10.9222 14.8779 10.9932 14.7911C11.0671 14.7 11.1039 14.6166 11.1439 14.4734C11.2411 14.1223 11.108 14.0911 11.1272 13.9109C11.0873 13.8741 11.0458 13.8487 11.0005 13.809C10.8615 13.8689 10.9602 13.8226 10.8409 13.9126C10.785 13.9526 10.7543 13.977 10.7012 14.0127C10.5924 14.0885 10.5164 14.1219 10.4403 14.199C10.3374 14.3031 9.88881 15.0973 10.8232 14.9577Z" fill="white"/>
<path fill-rule="evenodd" clip-rule="evenodd" d="M17.6644 27.3518C17.2775 26.8776 17.0024 26.2397 16.7991 25.651C16.6944 25.3446 16.6688 24.8646 16.5687 24.6324C16.2842 24.5512 16.0108 24.6173 15.6683 24.5634C14.7259 24.4091 14.6714 24.3903 13.7966 24.1082C12.6295 23.7326 13.1664 23.3925 12.4745 24.1363C12.3087 24.3128 12.1381 24.4723 11.939 24.6353C11.5082 24.9896 11.2605 25.1352 10.7783 25.4036C10.1965 25.7308 9.96592 25.71 9.64768 25.8363C9.4612 25.9101 9.58629 25.8019 9.5042 25.9521C9.91288 26.2662 10.4667 26.5433 10.9633 26.8166C11.2027 26.9476 11.5034 27.113 11.748 27.2034C12.7449 27.5681 12.2713 27.5077 12.5419 27.643C12.8689 27.3847 13.3451 26.5628 13.4869 26.4414L14.5342 26.6984C14.6239 26.7469 14.5875 26.7552 14.599 27.0646C14.6223 27.6764 14.6489 27.5333 14.7149 28.0024L14.7449 28.191C15.0999 28.1905 14.4912 28.0478 15.6065 28.1529C16.2299 28.2104 17.4237 28.2114 18.0632 28.1511C18.2629 28.1328 18.1507 28.185 18.2774 28.0824C18.2572 28.0287 17.7695 27.4824 17.6644 27.3518ZM14.4895 25.7382L14.1156 25.6469L13.9012 25.5866L14.3575 24.5578L14.5756 24.6051L14.6148 24.6096L14.8118 24.6795L14.6598 25.7771L14.4895 25.7382Z" fill="white"/>
<path d="M21.5443 9.8349C22.6842 8.37845 22.4783 6.32454 21.0844 5.24738C19.6906 4.17021 17.6367 4.47769 16.4969 5.93414C15.3571 7.3906 15.563 9.4445 16.9568 10.5217C18.3506 11.5988 20.4045 11.2914 21.5443 9.8349Z" fill="white"/>
</svg>
