<svg width="7" height="9" viewBox="0 0 7 9" fill="none" xmlns="http://www.w3.org/2000/svg">
<path d="M6.29883 8.10938V9H0.714844V8.2207L3.50977 5.10938C3.85352 4.72656 4.11914 4.40234 4.30664 4.13672C4.49805 3.86719 4.63086 3.62695 4.70508 3.41602C4.7832 3.20117 4.82227 2.98242 4.82227 2.75977C4.82227 2.47852 4.76367 2.22461 4.64648 1.99805C4.5332 1.76758 4.36523 1.58398 4.14258 1.44727C3.91992 1.31055 3.65039 1.24219 3.33398 1.24219C2.95508 1.24219 2.63867 1.31641 2.38477 1.46484C2.13477 1.60938 1.94727 1.8125 1.82227 2.07422C1.69727 2.33594 1.63477 2.63672 1.63477 2.97656H0.550781C0.550781 2.49609 0.65625 2.05664 0.867188 1.6582C1.07812 1.25977 1.39062 0.943359 1.80469 0.708984C2.21875 0.470703 2.72852 0.351562 3.33398 0.351562C3.87305 0.351562 4.33398 0.447266 4.7168 0.638672C5.09961 0.826172 5.39258 1.0918 5.5957 1.43555C5.80273 1.77539 5.90625 2.17383 5.90625 2.63086C5.90625 2.88086 5.86328 3.13477 5.77734 3.39258C5.69531 3.64648 5.58008 3.90039 5.43164 4.1543C5.28711 4.4082 5.11719 4.6582 4.92188 4.9043C4.73047 5.15039 4.52539 5.39258 4.30664 5.63086L2.02148 8.10938H6.29883Z" fill="white"/>
</svg>
