<svg width="7" height="7" viewBox="0 0 7 7" fill="none" xmlns="http://www.w3.org/2000/svg">
<path d="M0.646447 6.14645C0.451184 6.34171 0.451184 6.65829 0.646447 6.85355C0.841709 7.04882 1.15829 7.04882 1.35355 6.85355L0.646447 6.14645ZM7 1C7 0.723858 6.77614 0.5 6.5 0.5H2C1.72386 0.5 1.5 0.723858 1.5 1C1.5 1.27614 1.72386 1.5 2 1.5H6V5.5C6 5.77614 6.22386 6 6.5 6C6.77614 6 7 5.77614 7 5.5V1ZM1.35355 6.85355L6.85355 1.35355L6.14645 0.646447L0.646447 6.14645L1.35355 6.85355Z" fill="#EFEFEF"/>
</svg>
