<svg width="20" height="19" viewBox="0 0 20 19" fill="none" xmlns="http://www.w3.org/2000/svg">
<g clip-path="url(#clip0_2_2929)">
<path d="M17.5271 2.39258H13.0157C12.218 2.39258 11.453 2.70945 10.889 3.27348C10.3249 3.83752 10.0081 4.60252 10.0081 5.40018V15.9268C10.0081 15.3285 10.2457 14.7548 10.6687 14.3318C11.0918 13.9087 11.6655 13.6711 12.2638 13.6711H17.5271V2.39258Z" stroke="white" stroke-width="2.8873" stroke-linecap="round" stroke-linejoin="round"/>
<path d="M2.48926 2.39258H7.00066C7.79833 2.39258 8.56332 2.70945 9.12736 3.27348C9.69139 3.83752 10.0083 4.60252 10.0083 5.40018V15.9268C10.0083 15.3285 9.77061 14.7548 9.34759 14.3318C8.92456 13.9087 8.35081 13.6711 7.75256 13.6711H2.48926V2.39258Z" stroke="white" stroke-width="2.8873" stroke-linecap="round" stroke-linejoin="round"/>
</g>
<defs>
<clipPath id="clip0_2_2929">
<rect width="18.0456" height="18.0456" fill="white" transform="translate(0.985352 0.136719)"/>
</clipPath>
</defs>
</svg>
