<svg width="20" height="20" viewBox="0 0 20 20" fill="none" xmlns="http://www.w3.org/2000/svg">
<path d="M9.58851 0.85172C9.80915 0.441774 10.3972 0.441774 10.6178 0.851721L13.3126 5.85882C13.3969 6.01541 13.5479 6.12511 13.7229 6.15688L19.3177 7.17254C19.7757 7.2557 19.9574 7.81493 19.6357 8.15144L15.7064 12.2617C15.5836 12.3902 15.5259 12.5677 15.5497 12.7439L16.3127 18.3788C16.3751 18.8401 15.8994 19.1857 15.48 18.9837L10.3567 16.5169C10.1965 16.4398 10.0098 16.4398 9.8496 16.5169L4.72634 18.9837C4.30688 19.1857 3.83117 18.8401 3.89363 18.3788L4.65656 12.7439C4.68042 12.5677 4.62275 12.3902 4.49986 12.2617L0.57058 8.15144C0.248877 7.81493 0.430581 7.2557 0.888643 7.17254L6.48343 6.15688C6.6584 6.12511 6.80939 6.01541 6.89367 5.85882L9.58851 0.85172Z" fill="white"/>
</svg>
