<svg width="14" height="14" viewBox="0 0 14 14" fill="none" xmlns="http://www.w3.org/2000/svg">
<path d="M6.48695 0.410316C6.70759 0.000369489 7.29559 0.000368178 7.51623 0.410314L9.2603 3.65085C9.34458 3.80744 9.49557 3.91714 9.67054 3.94891L13.2914 4.60623C13.7495 4.68939 13.9312 5.24862 13.6095 5.58513L11.0665 8.24522C10.9436 8.37376 10.8859 8.55127 10.9098 8.72749L11.4036 12.3743C11.466 12.8356 10.9903 13.1812 10.5709 12.9793L7.25514 11.3828C7.09491 11.3056 6.90827 11.3056 6.74805 11.3828L3.43233 12.9793C3.01287 13.1812 2.53716 12.8356 2.59963 12.3743L3.09338 8.72749C3.11724 8.55127 3.05957 8.37376 2.93668 8.24522L0.393703 5.58513C0.0720011 5.24862 0.253704 4.68939 0.711766 4.60623L4.33264 3.94891C4.50761 3.91714 4.65861 3.80744 4.74289 3.65085L6.48695 0.410316Z" fill="white"/>
</svg>
