<svg width="98" height="30" viewBox="0 0 98 30" fill="none" xmlns="http://www.w3.org/2000/svg">
    <path d="M15.5858 20.2037L15.8341 23.2766L1.57095 24.4288L1.18837 22.0647L8.38393 8.30421L11.4976 8.05268L8.58142 13.9678L5.02106 21.0572L15.5858 20.2037ZM12.3406 7.98458L13.9399 27.7817L10.024 28.098L8.42472 8.30091L12.3406 7.98458ZM27.7721 23.6671L28.0305 23.6462C29.1182 23.5584 30.0412 23.3515 30.7996 23.0256C31.5662 22.69 32.1829 22.2479 32.6495 21.6992C33.1161 21.1506 33.4421 20.4993 33.6275 19.7453C33.8122 18.9822 33.8665 18.1293 33.7903 17.1866L33.4872 13.4339C33.4293 12.7178 33.3059 12.0937 33.117 11.5615C32.9371 11.0286 32.7014 10.596 32.41 10.2637C32.1269 9.92165 31.8058 9.67388 31.4467 9.52041C31.0966 9.36621 30.7176 9.30559 30.3097 9.33854C29.8746 9.37369 29.4982 9.51358 29.1804 9.75823C28.8618 9.99381 28.5994 10.3024 28.393 10.684C28.1956 11.0649 28.0526 11.4962 27.9637 11.9778C27.8832 12.4496 27.8635 12.9393 27.9045 13.4469C27.9455 13.9545 28.0436 14.4347 28.1988 14.8875C28.3532 15.3312 28.5626 15.7203 28.8268 16.0548C29.0903 16.3802 29.4073 16.6329 29.7776 16.8128C30.1473 16.9837 30.5723 17.0497 31.0527 17.0109C31.515 16.9736 31.9205 16.8541 32.2692 16.6526C32.6262 16.4413 32.9198 16.1803 33.1502 15.8698C33.3897 15.5585 33.5631 15.2206 33.6705 14.8561C33.787 14.4908 33.8306 14.1269 33.8013 13.7643L35.1501 14.367C35.2014 15.0016 35.1159 15.638 34.8938 16.2764C34.6716 16.9147 34.3363 17.5075 33.8878 18.0546C33.4477 18.592 32.9224 19.0359 32.3121 19.3863C31.7017 19.7367 31.034 19.9411 30.3088 19.9997C29.3842 20.0744 28.5503 19.973 27.8071 19.6954C27.0632 19.4088 26.4178 18.9865 25.8709 18.4285C25.3323 17.8608 24.9036 17.1837 24.5846 16.3975C24.2656 15.6113 24.068 14.7468 23.9919 13.8041C23.9143 12.8432 23.9955 11.9288 24.2356 11.0609C24.4848 10.1923 24.8734 9.41275 25.4016 8.7223C25.9388 8.03112 26.6006 7.47128 27.3872 7.04279C28.182 6.60451 29.0825 6.34473 30.0887 6.26345C31.0949 6.18216 32.0261 6.30309 32.8825 6.62624C33.7389 6.94938 34.4906 7.4452 35.1376 8.11371C35.7839 8.77315 36.3056 9.58408 36.7027 10.5465C37.1089 11.5082 37.3606 12.5918 37.458 13.7974L37.5678 15.1571C37.6718 16.4443 37.628 17.6521 37.4363 18.7807C37.2537 19.9086 36.9222 20.9435 36.4417 21.8856C35.9696 22.8178 35.3513 23.6342 34.5867 24.3346C33.8313 25.0343 32.9322 25.5951 31.8897 26.0169C30.8472 26.4386 29.6642 26.703 28.3408 26.8099L28.028 26.8352L27.7721 23.6671ZM53.6136 12.8618L53.8904 16.2882C54.0105 17.7748 53.9555 19.0703 53.7253 20.1746C53.4945 21.2698 53.1077 22.1861 52.5651 22.9233C52.0309 23.6508 51.369 24.2106 50.5795 24.6028C49.7901 24.9951 48.8968 25.2315 47.8997 25.312C47.102 25.3764 46.3507 25.3368 45.6456 25.193C44.9399 25.0402 44.293 24.7685 43.7049 24.3781C43.1259 23.9869 42.6102 23.4766 42.1579 22.8471C41.7139 22.2078 41.3504 21.4343 41.0672 20.5266C40.784 19.6188 40.5941 18.5667 40.4974 17.3701L40.2206 13.9437C40.1006 12.4571 40.1563 11.1707 40.3879 10.0846C40.6278 8.98858 41.0149 8.07687 41.5492 7.34943C42.0925 6.62125 42.7593 6.06558 43.5495 5.68242C44.3389 5.29019 45.2322 5.0538 46.2293 4.97325C47.027 4.90881 47.7742 4.95338 48.4709 5.10694C49.1759 5.25071 49.8221 5.51328 50.4094 5.89465C50.9968 6.27602 51.5124 6.78635 51.9564 7.42564C52.3996 8.05587 52.7628 8.82485 53.046 9.7326C53.3285 10.6313 53.5177 11.6744 53.6136 12.8618ZM50.0026 17.1224L49.6412 12.649C49.5834 11.9329 49.4921 11.3107 49.3673 10.7825C49.2516 10.2535 49.1017 9.80946 48.9175 9.45026C48.7327 9.08199 48.5174 8.78918 48.2718 8.5718C48.0261 8.35443 47.7539 8.20307 47.455 8.11773C47.1562 8.03239 46.83 8.00399 46.4764 8.03255C46.0323 8.06843 45.6449 8.1864 45.3144 8.38645C44.9929 8.58577 44.7297 8.88531 44.5248 9.28506C44.3191 9.67575 44.1781 10.1889 44.1017 10.8247C44.0337 11.4506 44.0355 12.2077 44.1073 13.096L44.4687 17.5694C44.5265 18.2855 44.6137 18.9126 44.7301 19.4506C44.8556 19.9879 45.0112 20.4452 45.1968 20.8225C45.3907 21.19 45.6063 21.4874 45.8436 21.7146C46.0893 21.9319 46.3615 22.0833 46.6604 22.1686C46.9683 22.2532 47.299 22.2813 47.6526 22.2527C48.0877 22.2176 48.4659 22.1003 48.7874 21.901C49.1172 21.6919 49.3846 21.3874 49.5895 20.9877C49.8028 20.5781 49.9431 20.0559 50.0104 19.4209C50.0777 18.7859 50.0751 18.0197 50.0026 17.1224ZM69.6035 11.5701L69.8803 14.9965C70.0004 16.4831 69.9454 17.7786 69.7153 18.8829C69.4844 19.9781 69.0977 20.8944 68.5551 21.6316C68.0208 22.3591 67.3589 22.9189 66.5695 23.3111C65.78 23.7034 64.8867 23.9397 63.8896 24.0203C63.092 24.0847 62.3406 24.0451 61.6356 23.9013C60.9298 23.7485 60.2829 23.4768 59.6948 23.0864C59.1158 22.6952 58.6001 22.1849 58.1478 21.5554C57.7039 20.9161 57.3403 20.1426 57.0571 19.2349C56.774 18.3271 56.584 17.275 56.4874 16.0784L56.2106 12.652C56.0905 11.1654 56.1462 9.87904 56.3778 8.79285C56.6177 7.69687 57.0048 6.78516 57.5391 6.05772C58.0825 5.32954 58.7492 4.77387 59.5394 4.39071C60.3289 3.99848 61.2221 3.76209 62.2193 3.68154C63.0169 3.6171 63.7641 3.66167 64.4608 3.81523C65.1658 3.959 65.812 4.22157 66.3994 4.60294C66.9867 4.98431 67.5024 5.49464 67.9464 6.13393C68.3896 6.76416 68.7528 7.53315 69.036 8.44089C69.3184 9.33958 69.5076 10.3826 69.6035 11.5701ZM65.9926 15.8306L65.6312 11.3573C65.5733 10.6412 65.482 10.019 65.3572 9.49078C65.2415 8.96183 65.0916 8.51775 64.9075 8.15855C64.7226 7.79029 64.5074 7.49747 64.2617 7.28009C64.0161 7.06272 63.7438 6.91136 63.445 6.82602C63.1461 6.74068 62.8199 6.71229 62.4664 6.74084C62.0222 6.77672 61.6349 6.89469 61.3043 7.09474C60.9829 7.29407 60.7197 7.5936 60.5147 7.99335C60.3091 8.38404 60.1681 8.89724 60.0917 9.53295C60.0236 10.1589 60.0255 10.916 60.0973 11.8043L60.4586 16.2777C60.5165 16.9938 60.6036 17.6209 60.7201 18.1589C60.8456 18.6962 61.0011 19.1535 61.1867 19.5308C61.3806 19.8983 61.5963 20.1957 61.8336 20.4228C62.0792 20.6402 62.3515 20.7916 62.6503 20.8769C62.9583 20.9615 63.289 20.9896 63.6425 20.961C64.0776 20.9258 64.4559 20.8086 64.7774 20.6093C65.1072 20.4002 65.3745 20.0957 65.5795 19.696C65.7927 19.2864 65.933 18.7642 66.0003 18.1292C66.0676 17.4942 66.0651 16.728 65.9926 15.8306ZM89.3493 14.5871L78.934 15.4284L78.677 12.2467L88.9971 11.4131C89.8401 11.345 90.5002 11.1593 90.9775 10.8562C91.4639 10.5523 91.8017 10.1601 91.991 9.67948C92.1796 9.18981 92.2497 8.64585 92.2013 8.04758C92.1537 7.45839 91.9878 6.92893 91.7035 6.45921C91.4276 5.9797 91.0282 5.61051 90.5055 5.35165C89.9911 5.083 89.3532 4.97943 88.5918 5.04094L84.9886 5.33201L86.3297 21.9338L82.2507 22.2633L80.6514 2.46626L88.3201 1.84677C89.8792 1.72082 91.234 1.88964 92.3846 2.35325C93.5442 2.81612 94.4623 3.50835 95.1389 4.42993C95.8155 5.35151 96.2043 6.43776 96.3054 7.68868C96.4116 9.00304 96.1945 10.1565 95.6543 11.149C95.1231 12.1408 94.3202 12.931 93.2455 13.5196C92.1799 14.1075 90.8812 14.4633 89.3493 14.5871ZM90.1872 15.6416L90.4442 18.8233L79.2811 19.725L79.0241 16.5434L90.1872 15.6416Z"
          fill="white"/>
</svg>
