<svg width="30" height="30" viewBox="0 0 30 30" fill="none" xmlns="http://www.w3.org/2000/svg">
<path d="M18.4047 15.8108C18.5968 15.0049 19.4057 14.5073 20.2116 14.6993C21.0174 14.8913 21.5151 15.7003 21.323 16.5062C21.131 17.312 20.3221 17.8096 19.5162 17.6176C18.7103 17.4256 18.2127 16.6166 18.4047 15.8108Z" fill="white"/>
<path fill-rule="evenodd" clip-rule="evenodd" d="M24.446 11.7752C24.1644 10.1192 23.0082 8.70143 21.3679 8.1235L20.7497 7.90568C17.6274 6.80553 14.3918 6.05804 11.1033 5.67714L10.6712 5.62709C9.00173 5.43372 7.41327 6.39554 6.81093 7.96449C5.62408 11.0559 4.85316 14.2913 4.51839 17.5857C4.34848 19.2577 5.33252 20.8325 6.90977 21.4127L7.31802 21.5629C10.4249 22.7059 13.6499 23.4979 16.9329 23.924L17.5829 24.0083C19.3075 24.2322 20.9789 23.4882 21.977 22.1371C23.0597 22.077 24.0401 21.3844 24.4248 20.3317C25.1141 18.4453 25.5812 16.485 25.8166 14.4905C25.948 13.3774 25.3853 12.3171 24.446 11.7752ZM20.2513 9.32043C17.2344 8.25745 14.1081 7.53521 10.9307 7.16718L10.4986 7.11713C9.50939 7.00255 8.56818 7.57246 8.21127 8.5021C7.07204 11.4695 6.33204 14.5751 6.0107 17.7373C5.91003 18.728 6.4931 19.6612 7.42767 20.005L7.83591 20.1552C10.8379 21.2595 13.9539 22.0247 17.126 22.4364L17.776 22.5208C18.6241 22.6309 19.4534 22.3975 20.1049 21.913C18.6175 21.649 17.14 21.2565 15.729 20.7491C14.5271 20.3169 13.7601 19.1066 13.9112 17.8265C14.1466 15.832 14.6137 13.8717 15.303 11.9853C15.7454 10.7746 16.9758 10.0402 18.2434 10.1965C19.7317 10.3799 21.2274 10.6959 22.6741 11.131C22.311 10.4047 21.6761 9.82247 20.8695 9.53825L20.2513 9.32043ZM23.003 12.8096C23.0027 12.8135 23.0024 12.8173 23.0021 12.8212L22.9989 12.8604L23.1993 12.8765C23.297 12.9102 23.3943 12.9445 23.4912 12.9794C24.0474 13.1794 24.3949 13.7393 24.3269 14.3146C24.1052 16.1934 23.6652 18.0399 23.0159 19.8168C22.817 20.361 22.2545 20.7041 21.6678 20.6318C21.5655 20.6192 21.4632 20.6059 21.3609 20.592L21.1748 20.5159L21.1599 20.5523C21.1584 20.5559 21.157 20.5595 21.1555 20.5631C19.4874 20.3218 17.8167 19.9059 16.2366 19.3376C15.6804 19.1376 15.3329 18.5777 15.4009 18.0023C15.6226 16.1236 16.0626 14.277 16.7119 12.5001C16.9108 11.956 17.4734 11.6129 18.06 11.6852C19.7266 11.8906 21.4053 12.2728 23.003 12.8096Z" fill="white"/>
</svg>
