<svg width="46" height="43" viewBox="0 0 46 43" fill="none" xmlns="http://www.w3.org/2000/svg">
    <path fill-rule="evenodd" clip-rule="evenodd"
          d="M8.0937 18.7273C8.36163 19.208 8.85053 19.4151 9.39743 19.6278C10.4995 20.067 10.2123 20.2438 10.599 20.6111C11.0961 20.4343 11.3447 19.8709 11.6569 19.7051L11.9082 19.4593C12.8363 18.8627 14.256 19.7604 14.941 20.3211C17.7115 22.5999 19.7195 26.3177 19.7748 30.0991C21.3547 31.0686 23.4871 31.0299 25.0726 30.1295C25.1554 27.1767 26.2658 24.4698 27.9921 22.343C28.8567 21.2768 31.1769 18.6749 32.7845 19.3654C33.428 19.6416 33.6352 20.4288 34.2788 20.6139C34.3534 20.5393 34.3147 20.5835 34.3893 20.4813C34.4279 20.4233 34.4583 20.3681 34.4997 20.3073C34.5964 20.1609 34.6434 20.1112 34.7622 20.0145C35.461 19.4538 35.4472 19.951 36.8006 18.8019C36.8365 18.1059 36.4526 16.2856 36.1902 15.526C36.1156 15.3106 36.0963 15.2691 35.983 15.1366C33.8092 14.9985 29.9919 15.3962 27.9176 15.9542C23.3076 17.1888 23.5589 19.4952 22.4043 19.4621C21.189 19.4289 21.468 16.7137 15.1372 15.573C14.4466 15.4487 13.7533 15.4349 13.0821 15.3299C12.1181 15.1752 9.86976 15.0427 8.80081 15.1449C8.64337 15.7857 7.90035 18.0147 8.0937 18.7273Z"
          fill="white"/>
    <path fill-rule="evenodd" clip-rule="evenodd"
          d="M22.4733 35.7557C25.0365 35.7474 27.7324 35.0762 29.6023 33.7918C30.0029 33.5156 30.5277 33.3084 30.141 32.6649C29.5996 31.7672 29.3427 31.2948 28.9615 30.1707C28.3041 30.0077 27.4396 31.223 26.0972 31.0297C25.2465 30.9054 25.7934 30.0795 24.7327 30.7756C24.509 30.9247 24.3736 30.991 24.0864 31.0987C23.5201 31.3142 23.1472 31.4109 22.4788 31.4136C20.6282 31.4219 19.8824 30.4579 19.6117 30.4828C19.4598 30.4966 18.841 31.6843 16.8634 30.5049C16.554 30.3198 16.3579 30.1182 15.9933 30.1347C15.8165 30.4275 15.6121 31.0324 15.4409 31.3943C14.7282 32.9162 14.1371 33.1289 15.2171 33.778C17.4075 35.1094 19.6642 35.7585 22.4733 35.7557Z"
          fill="white"/>
    <path fill-rule="evenodd" clip-rule="evenodd"
          d="M10.2181 14.8301C10.917 13.4021 16.1098 15.0262 17.2561 15.4074C18.6592 15.8769 20.3386 16.9542 21.2888 18.0397C23.0538 20.0588 22.076 19.1363 24.7056 16.9984C26.8324 15.272 30.3376 14.4213 33.05 14.2998C34.0001 14.2556 34.1659 14.2252 34.6879 14.8411H35.1962L35.2431 13.1839C30.9894 12.8386 26.1722 13.9876 23.4957 17.3685C23.2306 17.7 22.8245 18.4899 22.4047 18.5728C22.1395 18.5452 21.2225 17.0315 20.2668 16.1835C17.4632 13.7031 13.5576 12.9795 9.65189 13.1756C9.6077 13.5236 9.63808 13.8827 9.63532 14.239C9.63532 14.9157 9.59113 14.8494 10.2181 14.8301Z"
          fill="white"/>
    <path fill-rule="evenodd" clip-rule="evenodd"
          d="M29.2717 29.9111C29.2993 30.3889 30.197 32.3059 30.4567 32.6235C31.2494 32.5876 33.5254 29.8393 34.0171 29.2095C34.7021 28.3339 36.1301 25.6629 36.3014 24.4476C36.1356 24.4641 34.2215 25.2983 34.5005 23.4725C33.8154 23.1742 34.006 23.0389 33.7989 22.6052C33.6331 22.8925 33.6028 23.3703 33.4895 23.7432C33.3486 24.1935 33.2547 24.4365 33.1028 24.8343C32.8211 25.5828 32.4951 26.1601 32.0836 26.8341C31.4096 27.9444 30.2164 29.2565 29.2717 29.9111Z"
          fill="white"/>
    <path fill-rule="evenodd" clip-rule="evenodd"
          d="M10.3872 23.5007C10.5364 24.9232 9.57789 24.6469 8.64429 24.5171C8.78792 25.8871 10.227 28.3316 10.9148 29.3039C11.4672 30.0856 13.7846 32.6185 14.4227 32.6571C14.6657 32.2622 15.5773 30.3563 15.6049 29.9088C13.6382 28.5802 12.1715 26.1855 11.423 23.8487C11.3236 23.5366 11.1965 22.8847 11.0777 22.6582C10.9728 22.8516 11.0253 22.9676 10.8429 23.1802C10.6883 23.3736 10.5584 23.3736 10.3872 23.5007Z"
          fill="white"/>
    <path fill-rule="evenodd" clip-rule="evenodd"
          d="M11.1274 12.9129C12.1604 12.982 11.4782 12.576 13.0084 12.7748C16.392 13.2113 19.8723 14.7221 21.8583 17.6583C22.3997 18.4621 22.4742 18.4566 22.9604 17.7329C23.3802 17.1086 23.9216 16.4844 24.4381 16.0093C25.2695 15.2387 25.9131 14.8409 26.9434 14.2692C27.7196 13.8438 29.0592 13.319 29.9928 13.1256C34.0614 12.2749 32.3848 13.0483 33.7438 12.9019V12.007C31.6556 11.8081 28.7692 12.7058 26.96 13.7167C25.7943 14.3713 23.6951 16.0397 22.9245 17.1915C22.7449 17.4622 22.7007 17.6832 22.408 17.8075C22.2478 17.6914 21.8445 17.0368 21.4826 16.6225C21.1512 16.2386 20.7037 15.8187 20.4082 15.537C18.1045 13.3742 14.4088 11.8164 11.1329 11.9931L11.1274 12.9129Z"
          fill="white"/>
    <path fill-rule="evenodd" clip-rule="evenodd"
          d="M34.8338 21.362C34.6266 21.6934 34.2399 21.7735 34.1487 22.3066C33.9968 23.1656 34.657 22.917 34.8255 23.2181C34.9746 23.4971 34.3808 24.2042 35.226 24.2815C35.7232 24.3257 36.2452 24.0882 36.5408 23.7982C37.1015 23.2457 36.654 22.8176 36.7811 22.4088C36.8529 22.1795 36.9772 22.105 37.0462 21.768C37.1291 21.3647 37.0656 21.2708 37.002 20.9117C36.9026 20.3593 37.397 20.1742 37.1926 19.3898C36.9937 18.6109 36.5159 19.3345 36.1485 19.5362C35.6983 19.782 34.7702 19.9864 34.6155 20.6631C34.5106 21.1327 34.7095 21.0747 34.8338 21.362Z"
          fill="white"/>
    <path fill-rule="evenodd" clip-rule="evenodd"
          d="M10.6954 22.8306C10.8115 21.6788 10.3308 21.9246 10.027 21.3611C10.1375 21.0849 10.2176 21.2147 10.259 20.9247C10.3861 20.0519 8.99673 19.737 8.58517 19.4746C8.2399 19.2508 8.21228 18.9884 7.83387 19.016C7.76205 19.2674 7.63223 19.3972 7.64052 19.7977C7.65156 20.2645 7.85044 20.375 7.88635 20.6568C7.92502 20.9551 7.73995 21.165 7.80348 21.6428C7.84768 21.9964 8.02169 22.1594 8.07693 22.4439C8.21228 23.1731 7.72338 23.4493 8.61279 24.01C9.17626 24.3635 9.63202 24.4354 10.1182 23.9989C10.143 23.6537 9.95795 23.3692 10.0905 23.1731C10.2756 22.9687 10.1789 23.1206 10.433 23.0184C10.7203 22.9051 10.5463 22.9549 10.6954 22.8306Z"
          fill="white"/>
    <path fill-rule="evenodd" clip-rule="evenodd"
          d="M45.0568 13.5842C44.9463 13.2223 44.4823 10.0873 44.6148 9.42441C44.6646 9.17582 44.8386 8.90236 44.8607 8.7394C45.0043 7.55996 41.1125 8.84436 39.7093 11.938C38.7978 13.946 39.2729 16.2856 39.0381 18.7881C38.342 26.2514 35.555 31.7259 29.4562 35.1261L27.009 36.3249C27.0725 36.7917 28.5061 38.228 28.7906 38.4904C29.2408 38.902 30.6274 39.9958 31.177 40.1477C31.514 40.2361 33.3536 38.9793 33.7072 38.7114C35.1076 37.6535 36.9858 36.1785 38.4332 35.3885C40.0656 34.4963 41.6373 33.0407 42.3278 31.1956C42.488 30.7675 42.7504 30.0327 42.5515 29.4637C42.2781 28.7069 41.7201 29.193 41.2588 28.9141C41.1787 28.4086 41.524 27.997 41.7947 27.7098C42.8471 26.5745 43.2227 26.2293 43.8221 24.4035C44.1259 23.4809 44.3193 22.5446 44.4353 21.4922C44.7364 18.7825 43.5735 19.3046 43.3912 19.0146C43.2559 18.3876 43.7033 18.139 43.9989 17.8296C44.8082 17.0037 44.7971 16.4789 45.0071 15.6807C45.0706 15.4044 45.1728 13.9654 45.0568 13.5842ZM28.3293 36.6149C28.3458 36.6039 28.3624 36.5818 28.3679 36.5762C28.379 36.5679 28.3983 36.5486 28.4094 36.5403L30.8704 35.1869C31.6328 34.7256 32.4808 34.1566 33.1437 33.5655C34.4087 32.4413 35.7539 30.9111 36.7676 29.3008C38.5961 26.4005 39.6154 24.0223 39.9689 20.5337C40.049 19.7714 40.1126 17.4291 40.3501 16.9595C40.9108 16.9153 40.9523 17.9926 40.9771 18.4345C41.1042 20.9177 40.7009 23.3704 39.7756 25.5995C38.516 28.6296 36.0826 31.795 33.6353 33.7865C32.5471 34.6786 29.6441 36.5707 28.3293 36.6149ZM38.342 33.4412C36.9748 34.9217 34.3065 36.5486 32.5305 37.3441C32.1438 37.5181 30.0473 38.3689 29.749 38.2473C29.8125 38.0181 29.7186 38.1921 30.0114 38.0733L31.0693 37.6728C33.4641 36.6342 35.0634 35.6841 36.9941 33.8859C37.6377 33.281 38.563 32.0988 39.0519 32.1264C39.1265 32.7203 38.6321 33.1236 38.342 33.4412ZM41.234 31.8999C40.9219 32.4386 40.1927 33.5379 39.5795 33.6235C39.6292 33.002 40.8252 31.748 40.2672 30.9967C40.0932 30.7619 39.237 30.6542 39.9385 30.0521C40.2203 29.809 40.6816 29.5853 41.1428 29.6736C42.2477 29.8919 41.5572 31.3447 41.234 31.8999ZM39.6071 29.635C37.878 32.1099 35.8451 34.2174 33.3149 35.7476C32.4393 36.2752 30.1385 37.4574 29.0253 37.5237C29.5115 37.1287 30.4672 36.8469 31.1246 36.521C36.0384 34.0931 38.1597 30.726 40.5987 26.0359C40.7893 25.6685 40.8942 25.2294 41.3003 25.2211C41.6566 26.3204 40.107 28.9196 39.6071 29.635ZM43.4686 22.6965C43.3111 23.4257 42.7946 24.9007 42.1151 25.0056C42.0682 24.2543 42.9134 22.4313 42.2256 21.8292C41.8997 21.5392 41.1042 21.8872 41.6014 20.8376C42.0543 19.8708 44.2309 19.1748 43.4686 22.6965ZM43.9492 14.5979C43.8691 15.3989 43.3691 17.1335 42.488 17.0645C42.4107 16.6529 42.709 15.8657 42.72 15.2415C42.7725 12.808 41.5544 13.0594 41.0821 13.8687C40.8887 14.2029 40.6788 15.0012 40.2396 14.9984C39.5574 13.4378 42.0488 9.25592 43.278 11.2557C43.7503 12.0208 44.0679 13.4212 43.9492 14.5979Z"
          fill="white"/>
    <path fill-rule="evenodd" clip-rule="evenodd"
          d="M15.201 35.0047C8.17969 30.9416 5.74624 24.1605 5.73243 15.5206C5.73243 14.6035 5.75177 14.1036 5.60537 13.2556C5.21867 10.9796 2.94543 8.68704 0.760582 8.33072C-0.551435 8.11527 0.221964 9.04335 0.268921 9.67312C0.335212 10.5653 0.627999 12.032 0.506465 13.0319C0.429125 13.6727 0.340736 13.4324 0.340736 14.2693C0.340736 14.2693 0.208154 16.4597 0.719149 17.2497C0.92631 17.5701 0.956693 17.7579 1.21357 18.001C1.47045 18.2496 1.67485 18.4622 1.57265 19.0091C1.33787 19.3848 0.440173 18.6832 0.440173 20.8625C0.440173 22.9065 1.29091 25.804 2.62226 27.221C2.90676 27.5276 3.8376 28.312 3.63044 28.9114C3.39566 29.2097 1.58646 28.3479 2.5394 31.1487C3.1305 32.8751 4.79607 34.5047 6.40639 35.3638C8.28465 36.3637 9.47789 37.5376 11.1545 38.6728C11.5937 38.9766 13.3228 40.2141 13.657 40.1561C14.1597 40.0677 15.6734 38.8579 16.0601 38.5209C16.4164 38.2088 17.7947 36.7725 17.872 36.3222C17.8472 36.3084 15.6651 35.2754 15.201 35.0047ZM0.937358 14.6477C0.760582 13.5429 1.24672 10.0322 2.85705 10.8498C4.03372 11.4492 5.16896 14.1064 4.59443 14.9792C3.93428 14.877 3.99505 13.4876 3.14707 13.3274C2.22728 13.1507 2.11403 14.482 2.14441 15.3106C2.16375 15.8493 2.27147 16.1669 2.39301 16.6061C2.6637 17.5866 1.33234 17.1254 0.937358 14.6477ZM2.63331 21.8044C1.98421 22.89 2.81838 23.9644 2.75761 25.0002C1.60856 24.8621 0.210916 19.7163 2.33776 20.0891C2.98687 20.2052 3.43157 20.7382 3.39566 21.5448C2.93162 21.8652 3.22993 21.6498 2.63331 21.8044ZM3.84313 29.7152C4.49499 29.6793 5.16343 29.9196 5.16343 30.6516C4.87341 30.8366 4.13315 30.9582 4.62758 32.1569C4.78502 32.5409 5.29325 33.3391 5.33192 33.6043C4.42594 33.6623 1.89582 29.8146 3.84313 29.7152ZM5.7932 32.1514C6.23238 32.0326 6.60527 32.6044 6.90082 32.9193C8.8868 35.0296 11.0689 36.5349 13.7344 37.626C14.0796 37.7696 14.7536 37.9906 15.0353 38.1784C12.9002 38.2392 5.61918 33.8004 5.7932 32.1514ZM11.5191 35.7229C9.11605 34.2368 6.78481 31.9636 5.26563 29.6406C4.71873 28.8009 3.32108 26.5332 3.53929 25.2433C3.96743 25.1742 4.12211 25.7267 4.27402 26.0526C4.69663 26.9531 5.4065 28.1435 5.90645 29.0357C7.59135 32.0299 10.638 35.1732 13.7924 36.5487C14.3365 36.7863 15.4662 37.2172 15.8474 37.5238C14.7481 37.4823 12.4665 36.3084 11.5191 35.7229ZM11.2125 33.7645C8.54705 31.6487 5.41479 27.3895 4.50328 23.9617C4.05029 22.2353 3.72159 20.1637 3.89285 18.3324C3.9398 17.8491 3.96466 16.9431 4.51985 16.9514C5.01704 18.2661 4.24088 23.6965 8.10787 29.3119C12.3754 35.5074 15.3833 35.5654 16.5434 36.6178C15.19 36.5764 12.345 34.6677 11.2125 33.7645Z"
          fill="white"/>
    <path fill-rule="evenodd" clip-rule="evenodd"
          d="M33.3208 19.9653C32.4148 20.3824 32.5695 22.1391 33.6633 22.1391C34.0611 22.1391 34.7433 21.4679 33.7766 20.4598C33.6992 20.3797 33.655 20.3327 33.5805 20.2388C33.3926 20.0123 33.5501 20.1255 33.3208 19.9653Z"
          fill="white"/>
    <path fill-rule="evenodd" clip-rule="evenodd"
          d="M11.8289 21.9275C11.8786 21.7949 11.9615 21.7562 12.0416 21.585C12.1244 21.4054 12.1465 21.2535 12.1438 21.0022C12.1355 20.3862 11.8869 20.389 11.8289 20.0851C11.7405 20.0409 11.6549 20.0161 11.5554 19.9691C11.3428 20.1238 11.4919 20.0078 11.3289 20.2039C11.2516 20.2923 11.2102 20.3448 11.1356 20.4249C10.9837 20.5934 10.8677 20.679 10.7738 20.8364C10.6467 21.0491 10.2655 22.5351 11.8289 21.9275Z"
          fill="white"/>
    <path fill-rule="evenodd" clip-rule="evenodd"
          d="M29.0177 39.7419C28.1255 39.1425 27.3438 38.2393 26.7086 37.3858C26.3799 36.9411 26.1009 36.1898 25.8164 35.8611C25.2916 35.8445 24.8579 36.0572 24.2475 36.1069C22.5653 36.234 22.4631 36.2257 20.8335 36.1235C18.6597 35.9882 19.4082 35.2369 18.5934 36.6897C18.3973 37.035 18.1846 37.3554 17.925 37.6924C17.3642 38.4244 17.0134 38.7531 16.3229 39.369C15.4915 40.1176 15.0882 40.1756 14.6076 40.5015C14.3259 40.6921 14.4861 40.4711 14.4198 40.7418C15.2705 41.0788 16.3505 41.2998 17.3311 41.5373C17.8034 41.6505 18.3973 41.7942 18.8586 41.8411C20.7368 42.0262 19.8999 42.1173 20.4275 42.2251C20.8583 41.6865 21.2671 40.1949 21.4494 39.9463L23.3608 39.9408C23.5376 39.9822 23.4796 40.0098 23.6509 40.496C23.9906 41.4572 23.9658 41.2197 24.3083 41.9378L24.4519 42.2251C25.0568 42.0842 23.9492 42.098 25.902 41.8246C26.9931 41.6699 29.0288 41.2003 30.0894 40.8523C30.4209 40.7446 30.2551 40.8716 30.4209 40.6589C30.3601 40.5816 29.2608 39.9076 29.0177 39.7419ZM22.8139 38.4354L22.1317 38.4382L21.7367 38.4271L22.0102 36.6152L22.4051 36.6041L22.4742 36.5958L22.8443 36.629L23.1233 38.4299L22.8139 38.4354Z"
          fill="white"/>
    <path d="M27.5981 8.56668C28.8146 5.67242 27.4546 2.33996 24.5603 1.12342C21.666 -0.0931139 18.3336 1.26695 17.117 4.16121C15.9005 7.05547 17.2606 10.3879 20.1548 11.6045C23.0491 12.821 26.3816 11.4609 27.5981 8.56668Z"
          fill="white"/>
</svg>
