<svg width="24" height="24" viewBox="0 0 24 24" fill="none" xmlns="http://www.w3.org/2000/svg">
<g clip-path="url(#clip0_2_5712)">
<path d="M19.4761 11.114C18.728 16.8992 10.6487 20.896 10.6487 20.896C10.6487 20.896 3.85186 14.9754 4.6 9.19026C4.85511 7.21756 5.88342 5.427 7.45872 4.21249C9.03401 2.99797 11.0273 2.45898 13 2.71409C14.9726 2.9692 16.7632 3.99751 17.9777 5.5728C19.1922 7.1481 19.7312 9.14134 19.4761 11.114Z" stroke="white" stroke-width="1.4" stroke-linecap="round" stroke-linejoin="round"/>
<path d="M11.7175 12.6316C13.0868 12.8087 14.3404 11.8422 14.5175 10.4729C14.6946 9.1036 13.7281 7.85 12.3587 7.67292C10.9894 7.49585 9.73584 8.46234 9.55876 9.83165C9.38169 11.201 10.3482 12.4546 11.7175 12.6316Z" stroke="white" stroke-width="1.4" stroke-linecap="round" stroke-linejoin="round"/>
</g>
<defs>
<clipPath id="clip0_2_5712">
<rect width="20" height="20" fill="white" transform="translate(3.18945 0.605225) rotate(7.36859)"/>
</clipPath>
</defs>
</svg>
