<svg width="10" height="10" viewBox="0 0 10 10" fill="none" xmlns="http://www.w3.org/2000/svg">
<path d="M2.60709 5.16741C2.25352 4.74313 1.62296 4.6858 1.19868 5.03937C0.774406 5.39293 0.717082 6.0235 1.07065 6.44777L2.60709 5.16741ZM4.43146 8.9187L3.66324 9.55889C3.86816 9.80479 4.17842 9.93774 4.49782 9.9165C4.81721 9.89526 5.10714 9.72239 5.27769 9.45151L4.43146 8.9187ZM9.6851 2.45151C9.97936 1.98415 9.83904 1.36673 9.37168 1.07247C8.90432 0.778204 8.2869 0.918526 7.99263 1.38589L9.6851 2.45151ZM1.07065 6.44777L3.66324 9.55889L5.19968 8.27852L2.60709 5.16741L1.07065 6.44777ZM5.27769 9.45151L9.6851 2.45151L7.99263 1.38589L3.58523 8.38589L5.27769 9.45151Z" fill="white"/>
</svg>
